<svg xmlns="http://www.w3.org/2000/svg" width="28" height="26" viewBox="0 0 28 26">
  <path fill-rule="evenodd" fill="rgb(247, 50, 103)" d="M13.789,25.901 L11.202,23.338 C4.800,17.734 0.154,13.667 0.154,8.333 C0.154,3.865 3.685,0.365 8.194,0.365 C10.229,0.365 12.236,1.121 13.789,2.455 C15.343,1.120 17.350,0.365 19.385,0.365 C23.893,0.365 27.425,3.865 27.425,8.333 C27.425,13.666 22.768,17.744 16.323,23.389 L13.789,25.901 ZM8.194,1.637 C4.398,1.637 1.426,4.578 1.426,8.333 C1.426,13.090 5.889,16.998 12.068,22.407 L13.789,24.111 L15.458,22.458 C21.678,17.008 26.153,13.089 26.153,8.333 C26.153,4.578 23.180,1.637 19.385,1.637 C17.481,1.637 15.605,2.416 14.237,3.772 L13.789,4.217 L13.341,3.772 C11.974,2.416 10.098,1.637 8.194,1.637 Z"/>
</svg>
