<svg xmlns="http://www.w3.org/2000/svg" width="37.625" height="37.625" viewBox="0 0 37.625 37.625">
  <path fill="#fff" fill-rule="evenodd" d="M258.542,910.961a18.735,18.735,0,0,0-26.984.987l-0.222.228A18.784,18.784,0,1,0,258.542,910.961Zm-30.27,15.116a14.031,14.031,0,0,0,2.081,3.429,31.351,31.351,0,0,0,3.207,3.249c2.227,2.034,3.757,3.432,3.964,7.094A17.33,17.33,0,0,1,228.272,926.077Zm10.775,14.475c-0.048-4.861-2.008-6.651-4.48-8.908a30.374,30.374,0,0,1-3.059-3.1,14.917,14.917,0,0,1-3.017-7.185,17.6,17.6,0,0,1,4.089-8.327,17.27,17.27,0,0,1,16.9-5.377,8.2,8.2,0,0,1-.605,4.949,17.486,17.486,0,0,1-4.023,4.151c-3.075,2.6-6.558,5.549-5.091,9.146,0.858,2.111,3.736,3.462,6.293,4.662,2.577,1.208,5.011,2.35,5.226,4.258,0.168,1.445.061,3.277-3.312,6.8A17.645,17.645,0,0,1,239.047,940.552Zm11.415,0.523c2.178-2.69,2.528-4.558,2.311-6.42-0.308-2.739-3.242-4.115-6.1-5.453-2.29-1.075-4.886-2.293-5.524-3.861-0.9-2.2.79-4.152,4.682-7.446a18.31,18.31,0,0,0,4.359-4.567,8.97,8.97,0,0,0,.875-4.954,17.161,17.161,0,0,1,2.566,1.254,5.734,5.734,0,0,1,2.607,3.33,14,14,0,0,1-.548,9.361l-0.1.248c-0.958,2.282-2.406,5.729-.517,8.39,1.051,1.48,3.484,2.041,5.37,2.252A17.382,17.382,0,0,1,250.462,941.075Zm5.835-10.987c-1.406-1.981-.153-4.965.678-6.942l0.1-.25a15.49,15.49,0,0,0,.6-10.354c-0.045-.16-0.1-0.318-0.154-0.475a17.294,17.294,0,0,1,3.666,19.707C258.732,931.584,256.92,930.964,256.3,930.088Z" transform="translate(-226.688 -905.688)"/>
</svg>
