<svg xmlns="http://www.w3.org/2000/svg" width="31" height="26" viewBox="0 0 31 26">
  <path fill="#9fb6d0" fill-rule="evenodd" d="M1718.66,570.989l0.03-5.948c-3.3-2.166-5.19-5.27-5.19-8.571,0-6.319,6.95-11.459,15.5-11.459s15.5,5.14,15.5,11.459-6.95,11.458-15.5,11.458a20.676,20.676,0,0,1-3.61-.321ZM1729,546.511c-7.72,0-14,4.467-14,9.959,0,2.886,1.76,5.628,4.84,7.522l0.35,0.222-0.02,4.336,5-2.51,0.25,0.047a19.2,19.2,0,0,0,3.58.341c7.72,0,14-4.467,14-9.958S1736.72,546.511,1729,546.511Z" transform="translate(-1713.5 -545)"/>
</svg>
