<svg xmlns="http://www.w3.org/2000/svg" width="34" height="42" viewBox="0 0 34 42">
  <path fill="#fff" fill-rule="evenodd" d="M261.9,1039.39c-0.657-7.77-6.327-14.51-8.207-15.96l-2.221-1.72,1.116,2.58a7.553,7.553,0,0,1,.211,5.2c-3.3-11.08-10.251-13.51-10.558-13.61l-1.109-.37,0.164,1.16c0.63,4.46-1.339,9.88-5.855,16.14a12.791,12.791,0,0,0-1.463-4.96l-1.2-2.32-0.16,2.61a18.562,18.562,0,0,1-2.208,6.72,20.61,20.61,0,0,0-2.22,5.96c-1.843,13.84,9.968,16.67,17.076,16.67C252.74,1057.49,263.215,1052.42,261.9,1039.39Zm-4.765,11.6a16.442,16.442,0,0,1-11.874,5c-2.713,0-9.43-.46-13.179-4.74-2.172-2.49-2.983-5.93-2.41-10.23a16.1,16.1,0,0,1,1.712-4.73l0.379-.79a31.025,31.025,0,0,0,1.846-4.51,12.93,12.93,0,0,1,.341,1.97l0.406,3.91,2.3-3.19c4.309-5.97,6.4-11.29,6.243-15.85,2,1.12,6.135,4.28,8.461,12.08l1.235,4.15,1.6-4.02a7.871,7.871,0,0,0,.444-3.49c2.206,2.67,5.313,7.57,5.771,12.99C260.878,1044.21,259.777,1048.07,257.132,1050.99Z" transform="translate(-228 -1015.5)"/>
</svg>
