<svg xmlns="http://www.w3.org/2000/svg" width="23.969" height="29" viewBox="0 0 23.969 29">
  <path fill="#fff" fill-rule="evenodd" d="M616.95,671.525c-0.462-5.376-4.452-10.044-5.774-11.049l-1.562-1.185,0.785,1.788a5.129,5.129,0,0,1,.148,3.591c-2.322-7.661-7.212-9.344-7.429-9.415L602.339,655l0.115,0.806c0.443,3.082-.942,6.833-4.119,11.162a8.757,8.757,0,0,0-1.03-3.43l-0.847-1.605-0.113,1.808a12.761,12.761,0,0,1-1.553,4.651,17.5,17.5,0,0,0-1.562,4.125,8.138,8.138,0,0,0,2.068,7.78,10.948,10.948,0,0,0,7.944,3.7h2.407a11.4,11.4,0,0,0,8.122-3.7A11.017,11.017,0,0,0,616.95,671.525Z" transform="translate(-593 -655)"/>
</svg>
