<svg xmlns="http://www.w3.org/2000/svg" width="39.938" height="43" viewBox="0 0 39.938 43">
  <metadata><?xpacket begin="﻿" id="W5M0MpCehiHzreSzNTczkc9d"?>
<x:xmpmeta xmlns:x="adobe:ns:meta/" x:xmptk="Adobe XMP Core 5.6-c142 79.160924, 2017/07/13-01:06:39        ">
   <rdf:RDF xmlns:rdf="http://www.w3.org/1999/02/22-rdf-syntax-ns#">
      <rdf:Description rdf:about=""/>
   </rdf:RDF>
</x:xmpmeta>
                                                                                                    
                                                                                                    
                                                                                                    
                                                                                                    
                                                                                                    
                                                                                                    
                                                                                                    
                                                                                                    
                                                                                                    
                                                                                                    
                                                                                                    
                                                                                                    
                                                                                                    
                                                                                                    
                                                                                                    
                                                                                                    
                                                                                                    
                                                                                                    
                                                                                                    
                                                                                                    
                           
<?xpacket end="w"?></metadata>
<defs>
    <style>
      .cls-1 {
        fill: #fff;
        fill-rule: evenodd;
      }
    </style>
  </defs>
  <path id="sidebar_icon_bell" class="cls-1" d="M249.582,1383.74h-9.259c-12.026,0-15.283-.62-15.283-5.05a3.976,3.976,0,0,1,1.433-2.88l4.022-4.07c2.094-2.13,2.312-2.35,2.312-7.16l0-1.82c-0.016-5.77-.032-11.23,8.53-12.77l0.279-.97a3.613,3.613,0,0,1,3.243-2.04,3.537,3.537,0,0,1,3.122,1.87l0.5,1.13c8.649,1.52,8.636,7.01,8.621,12.82v1.76c0,4.87.212,5.08,2.239,7.12l4.522,4.45a3.475,3.475,0,0,1,1.1,2.56C264.959,1383.08,261.5,1383.74,249.582,1383.74Zm-4.725-35.26a2.1,2.1,0,0,0-1.872,1.12l-0.469,1.72-0.473.07c-7.766,1.22-7.754,5.48-7.738,11.36l0,1.83c0,5.27-.391,5.82-2.741,8.21l-3.988,4.03a2.627,2.627,0,0,0-1.038,1.87c0,2.69,1.07,3.55,13.783,3.55h9.259c12.681,0,13.878-.97,13.878-3.55a2.047,2.047,0,0,0-.765-1.61l-4.424-4.34c-2.293-2.31-2.674-2.85-2.674-8.18v-1.76c0.016-5.91.026-10.19-7.76-11.41l-0.405-.06-0.792-1.8A2.019,2.019,0,0,0,244.857,1348.48ZM245,1390.02a5.984,5.984,0,0,1-5.514-4.61,0.75,0.75,0,1,1,1.467-.31,4.1,4.1,0,0,0,8.094,0,0.741,0.741,0,0,1,.891-0.58,0.754,0.754,0,0,1,.576.89A5.984,5.984,0,0,1,245,1390.02Z" transform="translate(-225.031 -1347)"/>
</svg>
