<svg xmlns="http://www.w3.org/2000/svg" width="27.28" height="25.531" viewBox="0 0 27.28 25.531">
  <metadata><?xpacket begin="﻿" id="W5M0MpCehiHzreSzNTczkc9d"?>
<x:xmpmeta xmlns:x="adobe:ns:meta/" x:xmptk="Adobe XMP Core 5.6-c142 79.160924, 2017/07/13-01:06:39        ">
   <rdf:RDF xmlns:rdf="http://www.w3.org/1999/02/22-rdf-syntax-ns#">
      <rdf:Description rdf:about=""/>
   </rdf:RDF>
</x:xmpmeta>
                                                                                                    
                                                                                                    
                                                                                                    
                                                                                                    
                                                                                                    
                                                                                                    
                                                                                                    
                                                                                                    
                                                                                                    
                                                                                                    
                                                                                                    
                                                                                                    
                                                                                                    
                                                                                                    
                                                                                                    
                                                                                                    
                                                                                                    
                                                                                                    
                                                                                                    
                                                                                                    
                           
<?xpacket end="w"?></metadata>
<defs>
    <style>
      .cls-1 {
        fill: #f73267;
        fill-rule: evenodd;
      }
    </style>
  </defs>
  <path id="heart_icon" class="cls-1" d="M1630.79,569.9l-2.59-2.563c-6.4-5.6-11.05-9.671-11.05-15a7.924,7.924,0,0,1,8.04-7.968,8.534,8.534,0,0,0,11.19,0,7.918,7.918,0,0,1,8.04,7.968c0,5.333-4.65,9.411-11.1,15.056Zm-5.6-24.264a6.657,6.657,0,0,0-6.76,6.7c0,4.757,4.46,8.665,10.64,14.074l1.72,1.7,1.67-1.653c6.22-5.45,10.69-9.369,10.69-14.125a6.659,6.659,0,0,0-6.77-6.7,7.349,7.349,0,0,0-5.14,2.135l-0.45.445-0.45-.445A7.372,7.372,0,0,0,1625.19,545.637Z" transform="translate(-1617.16 -544.375)"/>
</svg>
