<svg xmlns="http://www.w3.org/2000/svg" width="43.12" height="43.125" viewBox="0 0 43.12 43.125">
  <metadata><?xpacket begin="﻿" id="W5M0MpCehiHzreSzNTczkc9d"?>
<x:xmpmeta xmlns:x="adobe:ns:meta/" x:xmptk="Adobe XMP Core 5.6-c142 79.160924, 2017/07/13-01:06:39        ">
   <rdf:RDF xmlns:rdf="http://www.w3.org/1999/02/22-rdf-syntax-ns#">
      <rdf:Description rdf:about=""/>
   </rdf:RDF>
</x:xmpmeta>
                                                                                                    
                                                                                                    
                                                                                                    
                                                                                                    
                                                                                                    
                                                                                                    
                                                                                                    
                                                                                                    
                                                                                                    
                                                                                                    
                                                                                                    
                                                                                                    
                                                                                                    
                                                                                                    
                                                                                                    
                                                                                                    
                                                                                                    
                                                                                                    
                                                                                                    
                                                                                                    
                           
<?xpacket end="w"?></metadata>
<defs>
    <style>
      .cls-1 {
        fill: #fff;
        fill-rule: evenodd;
      }
    </style>
  </defs>
  <path id="icon_navbar_world" class="cls-1" d="M1760.46,311.469a21.516,21.516,0,0,0-31.07,1.239l-0.02-.015c0,0.006-.05.074-0.12,0.171A21.552,21.552,0,1,0,1760.46,311.469ZM1726.69,327a18.913,18.913,0,0,1,.59-4.607,17.977,17.977,0,0,0,4.16,8.545,37.5,37.5,0,0,0,3.74,3.793c2.93,2.666,5.09,4.662,5.06,10.32A18.831,18.831,0,0,1,1726.69,327Zm22.74,18.393c3.69-3.79,3.87-5.725,3.64-7.687-0.27-2.423-3.01-3.705-5.91-5.063-2.52-1.182-5.38-2.522-6.16-4.442-1.22-3,1.34-5.472,5.09-8.647a18.6,18.6,0,0,0,4.38-4.551,9.538,9.538,0,0,0,.67-5.945,18.646,18.646,0,0,1,6.11,3.256,15.351,15.351,0,0,1,.36,12.741l-0.11.262c-0.93,2.221-2.34,5.575-.62,7.992,0.98,1.376,2.78,2.087,5.37,2.223A18.887,18.887,0,0,1,1749.43,345.393Z" transform="translate(-1723.94 -305.438)"/>
</svg>
