<svg xmlns="http://www.w3.org/2000/svg" width="33.688" height="40.68" viewBox="0 0 33.688 40.68">
  <metadata><?xpacket begin="﻿" id="W5M0MpCehiHzreSzNTczkc9d"?>
<x:xmpmeta xmlns:x="adobe:ns:meta/" x:xmptk="Adobe XMP Core 5.6-c142 79.160924, 2017/07/13-01:06:39        ">
   <rdf:RDF xmlns:rdf="http://www.w3.org/1999/02/22-rdf-syntax-ns#">
      <rdf:Description rdf:about=""/>
   </rdf:RDF>
</x:xmpmeta>
                                                                                                    
                                                                                                    
                                                                                                    
                                                                                                    
                                                                                                    
                                                                                                    
                                                                                                    
                                                                                                    
                                                                                                    
                                                                                                    
                                                                                                    
                                                                                                    
                                                                                                    
                                                                                                    
                                                                                                    
                                                                                                    
                                                                                                    
                                                                                                    
                                                                                                    
                                                                                                    
                           
<?xpacket end="w"?></metadata>
<defs>
    <style>
      .cls-1 {
        fill: #fff;
        fill-rule: evenodd;
      }
    </style>
  </defs>
  <path id="sidemenu_icon_location" class="cls-1" d="M261.847,1145a16.847,16.847,0,1,0-29.946,10.59l-0.087.08L245,1168.85l11.941-11.94,1.189-1.28-0.033-.03A16.825,16.825,0,0,0,261.847,1145Zm-5.351,10.16L245,1166.73l-11.008-11,0.006-.01-0.493-.56A15.346,15.346,0,1,1,256.5,1155.16ZM245,1138.23a6.96,6.96,0,1,0,6.964,6.96A6.967,6.967,0,0,0,245,1138.23Zm0,12.42a5.46,5.46,0,1,1,5.464-5.46A5.467,5.467,0,0,1,245,1150.65Z" transform="translate(-228.156 -1128.16)"/>
</svg>
