<svg xmlns="http://www.w3.org/2000/svg" width="27.312" height="43.75" viewBox="0 0 27.312 43.75">
  <metadata><?xpacket begin="﻿" id="W5M0MpCehiHzreSzNTczkc9d"?>
<x:xmpmeta xmlns:x="adobe:ns:meta/" x:xmptk="Adobe XMP Core 5.6-c142 79.160924, 2017/07/13-01:06:39        ">
   <rdf:RDF xmlns:rdf="http://www.w3.org/1999/02/22-rdf-syntax-ns#">
      <rdf:Description rdf:about=""/>
   </rdf:RDF>
</x:xmpmeta>
                                                                                                    
                                                                                                    
                                                                                                    
                                                                                                    
                                                                                                    
                                                                                                    
                                                                                                    
                                                                                                    
                                                                                                    
                                                                                                    
                                                                                                    
                                                                                                    
                                                                                                    
                                                                                                    
                                                                                                    
                                                                                                    
                                                                                                    
                                                                                                    
                                                                                                    
                                                                                                    
                           
<?xpacket end="w"?></metadata>
<defs>
    <style>
      .cls-1 {
        fill: #fff;
        fill-rule: evenodd;
      }
    </style>
  </defs>
  <path id="sidemenu_icon_profile" class="cls-1" d="M244.918,1279.38c-5.531,0-10.015-1.47-13.323-4.37l-0.256-.22v-0.34a8.949,8.949,0,0,1,7.595-7.46,38.664,38.664,0,0,1,5.984-.45,39.466,39.466,0,0,1,6.174.5,8.869,8.869,0,0,1,7.495,7.18l0.074,0.42-0.314.28C255.014,1277.88,250.5,1279.38,244.918,1279.38Zm-12.012-5.22c3,2.47,7.036,3.72,12.012,3.72,5.017,0,9.086-1.28,12.107-3.8a7.39,7.39,0,0,0-6.168-5.55,36.817,36.817,0,0,0-5.939-.49,37.593,37.593,0,0,0-5.76.43A7.356,7.356,0,0,0,232.906,1274.16Zm12-9.34c-4.61,0-8.053-4.83-9.6-8.97a0.171,0.171,0,0,0-.165-0.11c-1.705,0-2.875-1.43-2.913-3.48a2.387,2.387,0,0,1,1.618-2.59c-0.82-3.81-.529-6.78.853-8.6a5.34,5.34,0,0,1,3.857-2.04c0.429-2.02,3.043-3.41,6.517-3.41a11.628,11.628,0,0,1,9.018,3.99c2.061,2.52,2.768,6.03,2.059,10.16a2.451,2.451,0,0,1,1.435,2.49c-0.038,2.05-1.21,3.48-2.848,3.48C253.2,1259.92,249.745,1264.82,244.908,1264.82Zm-9.828-10.58a1.706,1.706,0,0,1,1.632,1.09c1.38,3.68,4.353,7.99,8.2,7.99,4.055,0,7.038-4.36,8.36-8.1a1.491,1.491,0,0,1,1.409-.98h0c1.095,0,1.395-1.26,1.409-2.01a0.983,0.983,0,0,0-.93-1.2l-0.755-.14,0.155-.75c0.825-4.03.278-7.25-1.626-9.59a10.13,10.13,0,0,0-7.856-3.43c-2.76,0-4.94,1.02-5.074,2.38-0.01.1-.016,0.18-0.017,0.26l-0.021.7-0.706.03a4.123,4.123,0,0,0-3.361,1.49c-1.19,1.57-1.334,4.37-.416,8.09l0.21,0.85-0.873.08a0.986,0.986,0,0,0-1.087,1.23c0.014,0.75.313,2.01,1.348,2.01h0Z" transform="translate(-231.344 -1235.63)"/>
</svg>
