<svg xmlns="http://www.w3.org/2000/svg" width="47" height="47" viewBox="0 0 47 47">
  <path fill-rule="evenodd" d="M766.993,328.807v-2.482a2.962,2.962,0,0,0-2.439-2.916l-2.154-.388a2.909,2.909,0,0,1-2.193-1.755c-0.075-.186-0.154-0.37-0.235-0.553a2.922,2.922,0,0,1,.291-2.865l1.584-2.254a2.963,2.963,0,0,0-.336-3.806l-1.723-1.712a2.964,2.964,0,0,0-3.812-.308l-2.171,1.552a2.992,2.992,0,0,1-3.051.236c-0.166-.079-0.332-0.157-0.5-0.232a2.97,2.97,0,0,1-1.728-2.149l-0.436-2.27a2.963,2.963,0,0,0-2.91-2.4h-2.517a2.964,2.964,0,0,0-2.918,2.442l-0.384,2.15a2.9,2.9,0,0,1-1.732,2.186q-0.3.126-.605,0.263a2.916,2.916,0,0,1-2.891-.284l-2.2-1.546a2.963,2.963,0,0,0-3.8.325l-1.734,1.73a2.964,2.964,0,0,0-.333,3.8l1.609,2.293a2.98,2.98,0,0,1,.354,2.7c-0.041.119-.081,0.239-0.12,0.358A3,3,0,0,1,725.532,323l-3.013.465a2.962,2.962,0,0,0-2.512,2.928v2.345a2.963,2.963,0,0,0,2.485,2.925l3.1,0.508a3,3,0,0,1,2.324,1.968c0.043,0.122.089,0.243,0.135,0.364a2.993,2.993,0,0,1-.345,2.856l-1.587,2.178a2.964,2.964,0,0,0,.3,3.839l1.687,1.689a2.963,2.963,0,0,0,3.794.334l2.335-1.632a3.071,3.071,0,0,1,2.68-.367c0.1,0.029.192,0.058,0.289,0.085a2.965,2.965,0,0,1,2.133,2.407l0.467,3.089a2.964,2.964,0,0,0,2.931,2.521h2.369a2.964,2.964,0,0,0,2.925-2.489l0.527-3.251a3,3,0,0,1,2.015-2.344q0.177-.061.354-0.126a2.987,2.987,0,0,1,2.783.344l2.34,1.667a2.965,2.965,0,0,0,3.8-.308l1.681-1.663a2.963,2.963,0,0,0,.314-3.848l-1.556-2.144a2.921,2.921,0,0,1-.306-2.928q0.123-.272.237-0.547a2.9,2.9,0,0,1,2.149-1.722l2.216-.424A2.963,2.963,0,0,0,766.993,328.807Zm-23.038-10.452a9.182,9.182,0,1,0,9.227,9.182A9.215,9.215,0,0,0,743.955,318.355Z" transform="translate(-720 -304.5)"/>
</svg>
